<?xml version="1.0" encoding="utf-8"?>
<!-- Generator: Adobe Illustrator 27.7.0, SVG Export Plug-In . SVG Version: 6.00 Build 0)  -->
<svg version="1.1" id="Layer_1" xmlns="http://www.w3.org/2000/svg" xmlns:xlink="http://www.w3.org/1999/xlink" x="0px" y="0px"
	 viewBox="0 0 32 32" style="enable-background:new 0 0 32 32;" xml:space="preserve">
<style type="text/css">
	.st0{fill:#FF9900;}
	.st1{fill:#FFFFFF;}
</style>
<g>
	<path class="st0" d="M16,0L16,0C7.2,0,0,6.9,0,15.5v1C0,25.1,7.2,32,16,32h0c8.8,0,16-6.9,16-15.5v-1C32,6.9,24.8,0,16,0z"/>
	<path class="st1" d="M11.3,16.2c0,0.8,0.4,1.2,0.4,1.5c0,0,0,0.1,0,0.1c0,0-0.1,0.1-0.1,0.1L11,18.3c-0.1,0-0.1,0.1-0.2,0.1
		c0,0-0.3,0.1-0.8-1c-0.3,0.4-0.6,0.6-1,0.8s-0.9,0.3-1.3,0.3c-0.6,0-2.3-0.3-2.2-2.1c-0.1-1.4,1.3-2.3,2.7-2.3c0.3,0,0.8,0,1.8,0.2
		v-0.6c0.1-1-0.6-1.8-1.7-1.6c-0.1,0-0.7,0-1.7,0.4c-0.3,0.1-0.3,0.1-0.4,0.1c-0.3,0-0.2-0.8-0.1-0.9C6.2,11.5,7.4,11,8.5,11
		c0.8-0.1,1.5,0.2,2.1,0.6c0.2,0.3,0.4,0.6,0.5,0.9s0.2,0.7,0.1,1L11.3,16.2L11.3,16.2z M8,17.4c1.2,0,1.7-0.7,1.8-1.1
		c0.1-0.4,0.1-0.6,0.1-1c-0.4-0.1-0.9-0.2-1.5-0.2c-0.6,0-1.6,0.2-1.6,1.2C6.9,16.9,7.3,17.5,8,17.4L8,17.4z M14.4,18.3
		c-0.3,0-0.4-0.2-0.5-0.4l-1.9-6.2c0-0.1-0.1-0.2-0.1-0.3c0,0,0-0.1,0-0.1c0,0,0.1-0.1,0.1-0.1c0,0-0.1,0,0.8,0
		c0.3,0,0.4,0.2,0.5,0.4l1.3,5.3l1.2-5.3c0-0.1,0.1-0.4,0.5-0.4h0.6c0.1,0,0.4,0,0.5,0.4l1.3,5.3l1.4-5.3c0-0.1,0.1-0.4,0.5-0.4h0.7
		c0,0,0.2,0,0.2,0.3c0,0.1,0.1-0.4-2,6.4c0,0.2-0.2,0.4-0.5,0.4h-0.7c-0.4,0-0.5-0.4-0.5-0.4l-1.2-5.1l-1.2,5.1c0,0-0.1,0.4-0.5,0.4
		L14.4,18.3L14.4,18.3z M24.7,18.5c-0.2,0-1.3,0-2.2-0.5c-0.1,0-0.2-0.1-0.2-0.2c-0.1-0.1-0.1-0.2-0.1-0.3v-0.4
		c0-0.3,0.2-0.3,0.3-0.2c0.4,0.2,0.6,0.3,1.1,0.4c1.4,0.3,2-0.1,2.1-0.2c0.5-0.3,0.5-1,0.2-1.3c-0.4-0.3-0.6-0.3-2-0.8
		c-0.2,0-1.6-0.5-1.6-2c0-1.1,0.9-2.1,2.6-2.1c0.5,0,1.7,0.2,2.1,0.6c0.1,0.1,0.1,0.2,0.1,0.3v0.4c0,0.2-0.1,0.2-0.2,0.2
		c-0.3,0-0.8-0.4-1.8-0.4c-0.3,0-1.5,0-1.4,0.9c0,0.7,1,1,1.1,1c1.4,0.4,1.8,0.5,2.4,1.1c0.6,0.8,0.3,1.8,0.2,2.1
		C26.6,18.6,24.7,18.5,24.7,18.5L24.7,18.5z M26.2,22.4c-2.6,1.9-6.4,3-9.7,3c-4.4,0-8.6-1.6-11.9-4.5c-0.2-0.2,0-0.5,0.3-0.4
		c3.6,2.1,7.7,3.2,11.9,3.2c3.1,0,6.2-0.6,9.1-1.9C26.3,21.6,26.6,22.1,26.2,22.4L26.2,22.4z M27.3,21.2c-0.3-0.4-2.2-0.2-3.1-0.1
		c-0.3,0-0.3-0.2-0.1-0.4c1.5-1.1,4-0.8,4.3-0.4c0.3,0.4-0.1,2.8-1.5,4c-0.2,0.2-0.4,0.1-0.3-0.2C26.9,23.4,27.6,21.6,27.3,21.2z"/>
</g>
</svg>
