<?xml version="1.0" encoding="utf-8"?>
<!-- Generator: Adobe Illustrator 27.7.0, SVG Export Plug-In . SVG Version: 6.00 Build 0)  -->
<svg version="1.1" id="Layer_1" xmlns="http://www.w3.org/2000/svg" xmlns:xlink="http://www.w3.org/1999/xlink" x="0px" y="0px"
	 viewBox="0 0 32 32" style="enable-background:new 0 0 32 32;" xml:space="preserve">
<style type="text/css">
	.st0{fill:#44B78B;}
</style>
<g>
	<path class="st0" d="M14.1,4h4v18.2c-1.7,0.3-3.4,0.5-5.1,0.5c-4.8,0-7.4-2.2-7.4-6.3c0-4,2.7-6.6,6.8-6.6c0.6,0,1.2,0.1,1.7,0.2
		C14.1,10,14.1,4,14.1,4z M14.1,13.1c-0.4-0.1-0.9-0.2-1.3-0.2c-2,0-3.2,1.2-3.2,3.4c0,2.1,1.1,3.2,3.1,3.2c0.5,0,0.9,0,1.4-0.1
		V13.1L14.1,13.1z"/>
	<path class="st0" d="M24.4,10.1v9.1c0,3.1-0.2,4.6-0.9,5.9c-0.7,1.3-1.9,2.3-3.2,2.9l-3.7-1.7c1.3-0.5,2.5-1.4,3.1-2.6
		c0.6-1.1,0.7-2.4,0.7-5.8v-7.7H24.4z"/>
	<rect x="20.4" y="4" class="st0" width="4" height="4"/>
</g>
</svg>
