<?xml version="1.0" encoding="utf-8"?>
<!-- Generator: Adobe Illustrator 27.7.0, SVG Export Plug-In . SVG Version: 6.00 Build 0)  -->
<svg version="1.1" id="Layer_1" xmlns="http://www.w3.org/2000/svg" xmlns:xlink="http://www.w3.org/1999/xlink" x="0px" y="0px"
	 viewBox="0 0 32 18.2" style="enable-background:new 0 0 32 18.2;" xml:space="preserve">
<style type="text/css">
	.st0{fill:#3A4E55;}
	.st1{fill:#00AADA;}
	.st2{fill:#27B9EC;}
	.st3{fill:#088CB9;}
	.st4{fill:#039CC7;}
	.st5{fill:#00ACD3;}
	.st6{fill:#26C2EE;}
	.st7{fill:#D5EEF2;}
	.st8{fill:#C0DBE1;}
</style>
<path class="st0" d="M18.5,5.7h2.9v2.9h1.5c0.7,0,1.4-0.1,2-0.3c0.3-0.1,0.7-0.3,1-0.4c-0.4-0.5-0.6-1.2-0.7-1.9
	c-0.1-1,0.1-2,0.7-2.8l0.3-0.3l0.4,0.3c1,0.7,1.6,1.7,1.8,2.9c1.1-0.3,2.3-0.2,3.3,0.3L32,6.7l-0.2,0.4c-0.9,1.4-2.5,2.2-4.2,2
	c-2.5,6.2-7.9,9.1-14.4,9.1c-3.3,0.2-6.5-1.4-8.3-4.3l0,0l-0.3-0.5C4,12,3.8,10.5,4,9.1l0-0.4h2.4V5.7h2.9V2.9h5.7V0h3.4L18.5,5.7
	L18.5,5.7z"/>
<path class="st1" d="M27.8,6.8c0-1.3-0.6-2.5-1.6-3.2C25.3,5,25.4,6.8,26.5,8c-1.1,0.8-2.4,1.2-3.7,1.2H4.4
	c-0.2,1.5,0.1,2.9,0.8,4.3l0.2,0.4c0.1,0.2,0.3,0.4,0.4,0.7l0,0c0.8,0,1.5,0.1,2.1,0.1l0,0c1,0,2.1-0.1,3.1-0.4c0.1,0,0.2,0,0.3,0.1
	c0,0.1,0,0.2-0.1,0.3c-0.1,0-0.2,0.1-0.3,0.1l0,0c-0.7,0.2-1.4,0.3-2.1,0.3c0.1,0-0.1,0-0.1,0l-0.1,0c-0.3,0-0.7,0-1.1,0
	c-0.4,0-0.8,0-1.2,0l0,0c1.8,1.9,4.3,2.9,6.9,2.8c6.4,0,11.7-2.8,14.1-9.1c1.7,0.2,3.3-0.3,4.1-1.7C30.2,6.3,28.9,6.3,27.8,6.8"/>
<path class="st2" d="M27.8,6.8c0-1.3-0.6-2.5-1.6-3.2C25.3,5,25.4,6.8,26.5,8c-1.1,0.8-2.4,1.2-3.7,1.2H5.5
	c-0.2,2.1,0.7,4.1,2.4,5.4l0,0c1,0,2.1-0.1,3.1-0.4c0.1,0,0.2,0,0.3,0.1c0,0.1,0,0.2-0.1,0.3c-0.1,0-0.2,0.1-0.3,0.1l0,0
	c-0.7,0.2-1.4,0.3-2.2,0.4l0,0c2.2,1.1,5.3,1.1,8.9-0.3c4.1-1.7,7.7-4.4,10.4-7.9L27.8,6.8"/>
<path class="st3" d="M4.5,11.1c0.1,0.8,0.4,1.6,0.7,2.4l0.2,0.4c0.1,0.2,0.3,0.4,0.4,0.7c0.8,0,1.5,0.1,2.1,0.1c1,0,2.1-0.1,3.1-0.4
	c0.1,0,0.2,0,0.3,0.1c0,0.1,0,0.2-0.1,0.3l0,0c-0.1,0-0.2,0.1-0.3,0.1l0,0c-0.7,0.2-1.4,0.3-2.2,0.4H8.5c-0.3,0-0.7,0-1.1,0
	c-0.4,0-0.8,0-1.3,0c1.8,1.9,4.3,2.9,6.9,2.8c5.4,0,10.2-2.1,12.9-6.6L4.5,11.1z"/>
<path class="st4" d="M5.7,11.1c0.3,1.4,1.1,2.6,2.2,3.4c1,0,2.1-0.1,3.1-0.4c0.1,0,0.2,0,0.3,0.1c0,0.1,0,0.2-0.1,0.3l0,0
	c-0.1,0-0.2,0.1-0.3,0.1l0,0c-0.7,0.2-1.4,0.3-2.2,0.4c2.2,1.1,5.3,1.1,8.9-0.3c2.2-0.9,4.3-2.1,6.1-3.6L5.7,11.1z"/>
<path class="st5" d="M9,6.4h0.2v2.1H9V6.4z M8.6,6.4h0.2v2.1H8.6V6.4z M8.3,6.4h0.2v2.1H8.3L8.3,6.4L8.3,6.4z M7.9,6.4h0.2v2.1H7.9
	L7.9,6.4L7.9,6.4z M7.5,6.4h0.2v2.1H7.5L7.5,6.4L7.5,6.4z M7.1,6.4h0.2v2.1H7.1L7.1,6.4L7.1,6.4z M6.9,6.2h2.5v2.5H6.9L6.9,6.2
	L6.9,6.2z"/>
<path class="st5" d="M11.9,3.6h0.2v2.1h-0.2V3.6z M11.5,3.6h0.2v2.1h-0.2V3.6z M11.1,3.6h0.2v2.1h-0.2V3.6z M10.8,3.6H11v2.1h-0.2
	V3.6z M10.4,3.6h0.2v2.1h-0.2V3.6z M10,3.6h0.2v2.1H10V3.6z M9.8,3.3h2.5v2.5H9.8L9.8,3.3L9.8,3.3z"/>
<path class="st6" d="M11.9,6.4h0.2v2.1h-0.2V6.4z M11.5,6.4h0.2v2.1h-0.2V6.4z M11.1,6.4h0.2v2.1h-0.2V6.4z M10.8,6.4H11v2.1h-0.2
	V6.4z M10.4,6.4h0.2v2.1h-0.2V6.4z M10,6.4h0.2v2.1H10V6.4z M9.8,6.2h2.5v2.5H9.8L9.8,6.2L9.8,6.2z"/>
<path class="st5" d="M14.8,6.4h0.2v2.1h-0.2V6.4z M14.4,6.4h0.2v2.1h-0.2L14.4,6.4L14.4,6.4z M14,6.4h0.2v2.1H14L14,6.4L14,6.4z
	 M13.6,6.4h0.2v2.1h-0.2L13.6,6.4L13.6,6.4z M13.2,6.4h0.2v2.1h-0.2V6.4z M12.9,6.4h0.2v2.1h-0.2V6.4z M12.7,6.2h2.5v2.5h-2.5
	L12.7,6.2L12.7,6.2z"/>
<path class="st6" d="M14.8,3.6h0.2v2.1h-0.2V3.6z M14.4,3.6h0.2v2.1h-0.2L14.4,3.6L14.4,3.6z M14,3.6h0.2v2.1H14L14,3.6L14,3.6z
	 M13.6,3.6h0.2v2.1h-0.2L13.6,3.6L13.6,3.6z M13.2,3.6h0.2v2.1h-0.2V3.6z M12.9,3.6h0.2v2.1h-0.2V3.6z M12.7,3.3h2.5v2.5h-2.5
	L12.7,3.3L12.7,3.3z"/>
<path class="st6" d="M17.6,6.4h0.2v2.1h-0.2V6.4z M17.2,6.4h0.2v2.1h-0.2V6.4z M16.9,6.4h0.2v2.1h-0.2V6.4z M16.5,6.4h0.2v2.1h-0.2
	V6.4z M16.1,6.4h0.2v2.1h-0.2V6.4z M15.7,6.4h0.2v2.1h-0.2V6.4z M15.5,6.2H18v2.5h-2.5V6.2z"/>
<path class="st5" d="M17.6,3.6h0.2v2.1h-0.2V3.6z M17.2,3.6h0.2v2.1h-0.2V3.6z M16.9,3.6h0.2v2.1h-0.2V3.6z M16.5,3.6h0.2v2.1h-0.2
	V3.6z M16.1,3.6h0.2v2.1h-0.2V3.6z M15.7,3.6h0.2v2.1h-0.2V3.6z M15.5,3.3H18v2.5h-2.5L15.5,3.3L15.5,3.3z"/>
<path class="st6" d="M17.6,0.7h0.2v2.1h-0.2V0.7z M17.2,0.7h0.2v2.1h-0.2V0.7z M16.9,0.7h0.2v2.1h-0.2V0.7z M16.5,0.7h0.2v2.1h-0.2
	V0.7z M16.1,0.7h0.2v2.1h-0.2V0.7z M15.7,0.7h0.2v2.1h-0.2V0.7z M15.5,0.5H18V3h-2.5V0.5z"/>
<path class="st5" d="M20.5,6.4h0.2v2.1h-0.2V6.4z M20.1,6.4h0.2v2.1h-0.2V6.4z M19.7,6.4h0.2v2.1h-0.2V6.4z M19.4,6.4h0.2v2.1h-0.2
	V6.4z M19,6.4h0.2v2.1H19V6.4z M18.6,6.4h0.2v2.1h-0.2V6.4z M18.4,6.2h2.5v2.5h-2.5L18.4,6.2L18.4,6.2z"/>
<path class="st7" d="M12.1,12.7c0.4,0,0.7,0.3,0.7,0.7c0,0.4-0.3,0.7-0.7,0.7c-0.4,0-0.7-0.3-0.7-0.7C11.4,13,11.8,12.7,12.1,12.7
	L12.1,12.7"/>
<path class="st0" d="M12.1,12.9c0.1,0,0.1,0,0.2,0c-0.1,0.1-0.1,0.2-0.1,0.3c0.1,0.1,0.2,0.1,0.3,0.1c0,0,0.1,0,0.1-0.1
	c0.1,0.3,0,0.5-0.3,0.6c-0.3,0.1-0.5,0-0.6-0.3c-0.1-0.3,0-0.5,0.3-0.6C12,12.9,12.1,12.9,12.1,12.9"/>
<path class="st0" d="M0,11.3h31.9c-0.7-0.2-2.2-0.4-2-1.3c-1.3,1.5-4.3,1-5.1,0.3c-0.9,1.2-5.8,0.8-6.2-0.2c-1.1,1.3-4.4,1.3-5.5,0
	c-0.3,1-5.3,1.4-6.2,0.2C6.3,11,3.2,11.4,1.9,10C2.2,10.9,0.7,11.1,0,11.3"/>
<path class="st8" d="M14,17.7c-1.4-0.6-2.5-1.7-3.1-3.1c-0.7,0.2-1.5,0.3-2.3,0.3c-0.3,0-0.7,0-1,0c-0.4,0-0.9,0-1.3,0
	c1.8,1.9,4.4,2.9,7,2.8C13.4,17.7,13.7,17.7,14,17.7"/>
<path class="st7" d="M11.4,15.7c-0.2-0.3-0.5-0.7-0.6-1.1c-0.7,0.2-1.5,0.3-2.3,0.3C9.4,15.4,10.4,15.6,11.4,15.7"/>
</svg>
