<?xml version="1.0" encoding="utf-8"?>
<!-- Generator: Adobe Illustrator 27.7.0, SVG Export Plug-In . SVG Version: 6.00 Build 0)  -->
<svg version="1.1" id="Capa_1" xmlns="http://www.w3.org/2000/svg" xmlns:xlink="http://www.w3.org/1999/xlink" x="0px" y="0px"
	 viewBox="0 0 800 543.1" style="enable-background:new 0 0 800 543.1;" xml:space="preserve">
<g>
	<path d="M702.3,0H97.7C43.8,0,0,43.8,0,97.7v347.7c0,53.9,43.8,97.7,97.7,97.7h604.6c53.9,0,97.7-43.8,97.7-97.7V97.7
		C800,43.8,756.2,0,702.3,0z M654.5,63.8L400,227.7l-254.5-164H654.5z M702.3,479.4H97.7c-18.7,0-34-15.2-34-34V99.5l316.6,203.6
		c0.4,0.3,0.9,0.4,1.3,0.7c0.5,0.3,0.9,0.5,1.4,0.7c2.5,1.3,5,2.3,7.6,3c0.3,0.1,0.5,0.1,0.8,0.2c2.8,0.7,5.7,1.1,8.6,1.1
		c0,0,0,0,0,0c0,0,0,0,0,0c2.9,0,5.7-0.4,8.6-1.1c0.3-0.1,0.5-0.1,0.8-0.2c2.6-0.7,5.1-1.7,7.6-3c0.5-0.2,0.9-0.5,1.4-0.7
		c0.4-0.2,0.9-0.4,1.3-0.7L736.3,99.5v345.9C736.3,464.1,721,479.4,702.3,479.4z"/>
</g>
</svg>
