<?xml version="1.0" encoding="utf-8"?>
<!-- Generator: Adobe Illustrator 27.7.0, SVG Export Plug-In . SVG Version: 6.00 Build 0)  -->
<svg version="1.1" id="Layer_1" xmlns="http://www.w3.org/2000/svg" xmlns:xlink="http://www.w3.org/1999/xlink" x="0px" y="0px"
	 viewBox="0 0 128 128" style="enable-background:new 0 0 128 128;" xml:space="preserve">
<style type="text/css">
	.st0{fill:#00618A;}
</style>
<path class="st0" d="M118.9,99.1c-7.1-0.2-12.6,0.5-17.2,2.4c-1.3,0.6-3.4,0.6-3.6,2.2c0.7,0.8,0.8,1.9,1.4,2.8
	c1.1,1.8,3,4.2,4.7,5.5c1.8,1.4,3.7,2.9,5.7,4c3.5,2.1,7.4,3.3,10.7,5.5c2,1.3,3.9,2.8,5.9,4.3c1,0.7,1.6,1.8,2.8,2.2v-0.2
	c-0.7-0.8-0.8-2-1.4-2.8l-2.6-2.6c-2.6-3.4-5.8-6.4-9.3-8.9c-2.8-2-9-4.7-10.1-7.9l-0.2-0.2c2-0.2,4.3-0.9,6.1-1.4
	c3-0.8,5.8-0.6,8.9-1.4l4.2-1.2v-0.8c-1.6-1.6-2.7-3.8-4.5-5.3c-4.5-3.9-9.5-7.7-14.6-10.9c-2.8-1.8-6.3-2.9-9.3-4.4
	c-1-0.5-2.8-0.8-3.4-1.6c-1.6-2-2.4-4.5-3.6-6.9c-2.5-4.9-5-10.2-7.3-15.4c-1.5-3.5-2.5-7-4.4-10.1c-9.2-15.1-19.1-24.2-34.4-33.2
	C40,10.7,36,10,31.9,9l-6.7-0.4c-1.4-0.6-2.8-2.2-4-3C16.1,2.4,3.1-4.6-0.7,4.6C-3.1,10.3,2.9,16,5,18.9c1.5,2.1,3.4,4.4,4.5,6.7
	c0.7,1.5,0.8,3,1.4,4.7c1.5,4,2.8,8.3,4.7,11.9c1,1.9,2,3.8,3.2,5.5c0.7,1,2,1.5,2.2,3c-1.2,1.7-1.3,4.5-2,6.7
	c-3.2,10-2,22.4,2.6,29.8c1.4,2.3,4.7,7.1,9.3,5.3c4-1.6,3.1-6.7,4.3-11.1c0.3-1,0.1-1.8,0.6-2.4V79l3.6,7.3
	c2.7,4.3,7.5,8.9,11.5,11.9c2.1,1.6,3.8,4.3,6.5,5.3v-0.2h-0.2c-0.5-0.8-1.3-1.2-2-1.8c-1.6-1.6-3.3-3.5-4.7-5.3
	c-3.7-5-6.9-10.5-9.9-16.2c-1.4-2.7-2.6-5.7-3.8-8.5c-0.5-1.1-0.5-2.7-1.4-3.2c-1.3,2-3.2,3.7-4.3,6.1c-1.6,3.8-1.8,8.5-2.4,13.4
	l-0.4,0.2c-2.8-0.7-3.8-3.6-4.9-6.1c-2.6-6.3-3.1-16.4-0.8-23.7c0.6-1.9,3.3-7.8,2.2-9.5c-0.5-1.7-2.3-2.7-3.2-4
	c-1.2-1.6-2.4-3.8-3.2-5.7c-2.2-4.9-3.2-10.4-5.5-15.4c-1.1-2.4-2.9-4.8-4.5-6.9c-1.7-2.3-3.6-4.1-4.9-6.9c-0.5-1-1.1-2.6-0.4-3.6
	c0.2-0.7,0.5-1,1.2-1.2C5.5,4.1,8.8,5.3,10,5.8c3.2,1.3,6,2.6,8.7,4.5c1.3,0.9,2.7,2.6,4.2,3h1.8c2.8,0.7,6,0.2,8.7,1
	c4.7,1.4,8.9,3.7,12.7,6.1C57.9,27.7,67.5,38.2,74,50.7c1,2,1.5,3.9,2.4,6.1c1.9,4.3,4.2,8.7,6.1,13c1.9,4.2,3.7,8.4,6.3,11.9
	c1.4,1.8,6.7,2.8,9.1,3.8c1.7,0.7,4.5,1.5,6.1,2.4c3.1,1.8,6,4,8.9,6.1C114.3,95,118.7,97.2,118.9,99.1z M28.5,22
	c-1.5,0-2.5,0.2-3.6,0.4v0.2H25c0.7,1.5,2,2.4,2.8,3.6l2,4.2l0.2-0.2c1.3-0.9,1.8-2.3,1.8-4.5c-0.5-0.5-0.6-1.2-1-1.8
	C30.3,23.1,29.2,22.7,28.5,22z"/>
</svg>
