<?xml version="1.0" encoding="utf-8"?>
<!-- Generator: Adobe Illustrator 27.7.0, SVG Export Plug-In . SVG Version: 6.00 Build 0)  -->
<svg version="1.1" id="Layer_1" xmlns="http://www.w3.org/2000/svg" xmlns:xlink="http://www.w3.org/1999/xlink" x="0px" y="0px"
	 viewBox="0 0 51.4 27" style="enable-background:new 0 0 51.4 27;" xml:space="preserve">
<style type="text/css">
	.st0{fill:url(#SVGID_1_);}
	.st1{fill:#6280B6;}
	.st2{fill:#FFFFFF;}
	.st3{fill:#000004;}
</style>
<g>
	
		<radialGradient id="SVGID_1_" cx="-11.0907" cy="14.9761" r="33.744" gradientTransform="matrix(1 0 0 -1 26.52 19.73)" gradientUnits="userSpaceOnUse">
		<stop  offset="0" style="stop-color:#FFFFFF"/>
		<stop  offset="0.5" style="stop-color:#4C6B96"/>
		<stop  offset="1" style="stop-color:#231F20"/>
	</radialGradient>
	<ellipse class="st0" cx="25.7" cy="13.5" rx="25.7" ry="13.5"/>
	<ellipse class="st1" cx="25.7" cy="13.5" rx="24.7" ry="12.5"/>
	<path class="st2" d="M30.7,17.6l1.2-6.3c0.4-1.1,0.1-2.3-0.7-3.2c-1.1-0.8-2.4-1.1-3.7-1h-2.1L26.1,4c0-0.2-0.1-0.4-0.3-0.5
		c0,0,0,0-0.1,0h-2.9c-0.2,0-0.4,0.1-0.4,0.3L21,10.6c-0.1-0.7-0.4-1.4-0.9-1.9c-1.1-1.1-2.5-1.6-4-1.5h-5.7c-0.2,0-0.4,0.1-0.4,0.3
		L7.4,21c0,0.2,0.1,0.4,0.3,0.5c0,0,0,0,0.1,0h2.9c0.2,0,0.4-0.1,0.4-0.3l0.6-3.3H14c1,0,1.9-0.1,2.9-0.4c0.8-0.3,1.5-0.7,2.1-1.3
		c0.5-0.4,0.9-1,1.2-1.5l-0.5,2.7c0,0.2,0.1,0.4,0.3,0.5c0,0,0,0,0.1,0H23c0.2,0,0.4-0.1,0.4-0.3l1.4-7.4h2c0.9,0,1.1,0.2,1.2,0.2
		c0.1,0.1,0.2,0.3,0,1l-1.2,6c0,0.2,0.1,0.4,0.3,0.5c0,0,0,0,0.1,0h3C30.5,17.9,30.7,17.7,30.7,17.6z M17.1,12.4
		c-0.1,0.8-0.5,1.5-1,2c-0.7,0.4-1.6,0.7-2.4,0.6h-1.3l0.9-4.9H15c1.2,0,1.7,0.3,1.9,0.5C17.3,11.1,17.3,11.8,17.1,12.4z"/>
	<path class="st2" d="M43.2,8.6c-1.1-1.1-2.5-1.6-4-1.5h-5.7c-0.2,0-0.4,0.1-0.4,0.3L30.5,21c0,0.2,0.1,0.4,0.3,0.5c0,0,0,0,0.1,0h3
		c0.2,0,0.4-0.1,0.4-0.3l0.6-3.3h2.2c1,0,1.9-0.1,2.9-0.4c0.8-0.3,1.5-0.7,2.1-1.3c1-0.9,1.7-2.2,2-3.5C44.4,11.3,44.1,9.8,43.2,8.6
		z M40.2,12.4c-0.1,0.8-0.5,1.5-1,2c-0.7,0.4-1.6,0.7-2.4,0.6h-1.3l0.9-4.9H38c1.2,0,1.7,0.3,1.9,0.5C40.3,11.1,40.4,11.8,40.2,12.4
		z"/>
	<path class="st3" d="M15,9.7c0.8-0.1,1.6,0.1,2.2,0.6c0.4,0.6,0.5,1.4,0.3,2.1c-0.1,0.9-0.5,1.7-1.2,2.2c-0.8,0.5-1.7,0.7-2.7,0.7
		h-1.8L13,9.7L15,9.7z M7.8,21.1h3l0.7-3.6H14c0.9,0,1.9-0.1,2.8-0.4c0.7-0.2,1.4-0.6,2-1.2c1-0.9,1.6-2,1.9-3.3
		c0.4-1.3,0.1-2.7-0.7-3.8c-1-1-2.4-1.5-3.7-1.3h-5.7L7.8,21.1z"/>
	<path class="st3" d="M22.7,3.9h2.9L25,7.5h2.6C28.8,7.4,30,7.7,31,8.4c0.7,0.8,0.9,1.8,0.6,2.8l-1.2,6.3h-3l1.2-6
		c0.2-0.5,0.1-1-0.1-1.4c-0.4-0.3-1-0.4-1.5-0.4h-2.3L23,17.5h-2.9L22.7,3.9z"/>
	<path class="st3" d="M38,9.7c0.8-0.1,1.6,0.1,2.2,0.6c0.4,0.6,0.5,1.4,0.3,2.1c-0.1,0.9-0.5,1.7-1.2,2.2c-0.8,0.5-1.7,0.7-2.7,0.7
		h-1.8L36,9.7L38,9.7z M30.9,21.1h3l0.7-3.6H37c0.9,0,1.9-0.1,2.8-0.4c0.7-0.2,1.4-0.6,2-1.2c1-0.9,1.6-2,1.9-3.3
		c0.4-1.3,0.1-2.7-0.7-3.8c-1-1-2.4-1.5-3.7-1.3h-5.7L30.9,21.1z"/>
</g>
</svg>
